<svg width="21" height="22" viewBox="0 0 21 22" fill="none" xmlns="http://www.w3.org/2000/svg">
<path d="M21 19.8L1.3 0L0 1.3L5.8 7.1L5.7 7.3C5.3 6.8 4.7 6.4 4.1 6.2C3.1 5.9 1.2 6 0.9 6.8C0.6 7.6 2.2 8.8 3.2 9C3.7 9.1 4.4 9.1 4.9 9V10.3C4.9 11.6 5.4 12.9 6.1 13.9C5.4 14.6 4.9 15.4 4.9 16.3C4.9 18.5 7.6 20.3 10.9 20.3C13.4 20.3 15.6 19.3 16.5 17.8L19.8 21.1L21 19.8ZM8.3 9.5C8 9.7 7.9 10 7.9 10.3C7.9 10.9 8.3 11.3 8.9 11.3C9.2 11.3 9.5 11.2 9.7 10.9L11.1 12.3H11C9.9 12.3 8.8 12.5 7.9 12.9C7.2 12.2 6.9 11.3 6.9 10.3C6.9 9.7 7 9.1 7.3 8.6L8.3 9.5ZM14.9 16.3C14.9 17.4 13.1 18.3 10.9 18.3C8.7 18.3 6.9 17.4 6.9 16.3C6.9 15.2 8.7 14.3 10.9 14.3C11.9 14.3 12.8 14.5 13.5 14.8L14.9 16.2V16.3ZM8.6 4.8L6.7 2.9C7.2 2.2 7.9 1.6 8.9 1.3L8.8 1.4C8.5 1.9 7.8 3.3 8.6 4.8ZM10.2 6.4L8.6 4.8C9.3 4.5 10.1 4.3 10.9 4.3C11.7 4.3 12.5 4.5 13.2 4.8C14 3.3 13.2 1.9 13 1.5L12.9 1.3C15.9 2.3 16.1 5.3 15.5 6.5L16.1 7.3C16.5 6.8 17.1 6.4 17.7 6.2C18.7 5.9 20.6 6 20.9 6.8C21.2 7.6 19.6 8.8 18.6 9C18.1 9.1 17.4 9.1 16.9 9V10.3C16.9 11.1 16.7 11.9 16.4 12.6L14.8 11C14.8 10.8 14.9 10.5 14.9 10.3C14.9 8.1 13.1 6.3 10.9 6.3C10.7 6.3 10.4 6.3 10.2 6.4ZM12.9 16.8C12.9 17.1 12.7 17.3 12.4 17.3C12.1 17.3 11.9 17.1 11.9 16.8C11.9 16.5 12.1 16.3 12.4 16.3C12.7 16.3 12.9 16.5 12.9 16.8ZM9.9 16.8C9.9 17.1 9.7 17.3 9.4 17.3C9.1 17.3 8.9 17.1 8.9 16.8C8.9 16.5 9.1 16.3 9.4 16.3C9.7 16.3 9.9 16.5 9.9 16.8Z" fill="black"/>
</svg>
