<svg width="18" height="23" viewBox="0 0 18 23" fill="none" xmlns="http://www.w3.org/2000/svg">
<path d="M9.96 0C9.3 1.55 8.64 3.1 8.65 4.61C8.66 5.21 8.77 5.79 8.94 6.41C8.86191 6.25317 8.77163 6.10271 8.67 5.96C7.83 4.79 6.17 3.79 4.5 2.79C4.5 3.59 4.5 4.38 4.68 5.15L11 11.47V9.49C12.5 8.59 13.92 7.67 14.67 6.62C15.5 5.46 15.5 4.12 15.5 2.79C13.83 3.79 12.17 4.79 11.33 5.96C11.23 6.1 11.15 6.24 11.07 6.38C11.25 5.75 11.36 5.11 11.35 4.48C11.34 2.97 10.65 1.48 9.96 0ZM1.28 4.29L0 5.56L4.64 10.2C4.75 10.79 4.95 11.34 5.33 11.87C6.08 12.92 7.5 13.84 9 14.74V17.02L8.67 16.46C7.83 15.29 6.17 14.29 4.5 13.29C4.5 14.62 4.5 15.96 5.33 17.12C6.08 18.17 7.5 19.09 9 19.99V21.79H11V19.99C11.74 19.55 12.45 19.1 13.07 18.63L16.73 22.29L18 21.01C12 15.02 7.1 10.11 1.28 4.29ZM15.5 8.04C13.83 9.04 12.17 10.04 11.33 11.21L11.12 11.58L13 13.45C13.67 12.95 14.27 12.43 14.67 11.87C15.5 10.71 15.5 9.37 15.5 8.04ZM15.5 13.29C14.93 13.63 14.38 13.97 13.85 14.32L15.29 15.76C15.5 14.96 15.5 14.12 15.5 13.29Z" fill="black"/>
</svg>
