<svg width="26" height="18" viewBox="0 0 26 18" fill="none" xmlns="http://www.w3.org/2000/svg">
<path d="M26 8.99696C26 8.24777 25.309 6.87895 23.7913 5.64511C22.925 4.94816 21.9378 4.39484 20.8722 4.00904C20.8367 3.99664 20.7976 3.99701 20.7625 4.01007C20.7273 4.02312 20.6986 4.04794 20.6819 4.0797C20.6746 4.09284 20.6673 4.10552 20.6591 4.11866L20.1947 4.83885C19.4115 6.10378 18.9994 7.53973 19 9.00146C19.0006 10.4632 19.4139 11.8988 20.1981 13.1632L20.2092 13.1809L20.6325 13.9056C20.6549 13.9441 20.6915 13.9737 20.7355 13.9888C20.7795 14.004 20.8279 14.0037 20.8717 13.988C24.4325 12.6849 26 10.1515 26 8.99696ZM21.4518 8.99062C21.2914 9.01025 21.1284 8.98239 20.9857 8.91094C20.843 8.8395 20.7278 8.72806 20.6563 8.59227C20.5848 8.45648 20.5605 8.30315 20.5869 8.15381C20.6133 8.00446 20.689 7.86659 20.8035 7.75955C20.9179 7.65252 21.0653 7.58168 21.225 7.55699C21.3847 7.5323 21.5486 7.555 21.6938 7.62189C21.8389 7.68878 21.9581 7.79652 22.0345 7.92997C22.1108 8.06342 22.1406 8.2159 22.1196 8.366C22.0975 8.52439 22.02 8.67151 21.8992 8.78447C21.7785 8.89743 21.6212 8.9699 21.4518 8.99062Z" fill="black"/>
<path d="M17.2325 8.99949C17.2318 7.0594 17.7472 5.15373 18.7264 3.4763L18.7325 3.46556L18.9699 3.07331C18.987 3.04536 18.9972 3.01373 18.9995 2.98106C19.0018 2.94839 18.9962 2.91564 18.9832 2.88558C18.9701 2.85551 18.95 2.829 18.9246 2.80827C18.8991 2.78754 18.869 2.77321 18.8368 2.76647C18.1718 2.62799 17.4979 2.53589 16.8199 2.49082C16.74 2.48568 16.6634 2.45722 16.5996 2.40899C15.6091 1.65927 13.6457 0.348024 11.6442 0.011007C11.5075 -0.0115535 11.3672 0.000690535 11.2364 0.0465997C11.1057 0.0925089 10.9888 0.170591 10.8965 0.273584C10.8042 0.376576 10.7396 0.501131 10.7086 0.635661C10.6777 0.770191 10.6814 0.910325 10.7195 1.04303L11.2651 2.94392C11.2793 2.99318 11.2744 3.04595 11.2514 3.09179C11.2283 3.13762 11.1889 3.17319 11.1408 3.19144C9.24773 3.89156 7.61718 5.17314 6.42793 6.14993C6.35514 6.20924 6.26412 6.2419 6.17007 6.24245C6.07602 6.24301 5.98461 6.21144 5.91112 6.153C5.74947 6.02515 5.58354 5.89917 5.41333 5.77507C3.37695 4.29455 0.984562 4.0997 0.883873 4.09254C0.756032 4.08293 0.627705 4.10322 0.509147 4.15179C0.390589 4.20036 0.285088 4.27586 0.201075 4.37227C0.117063 4.46867 0.0568683 4.58331 0.0253028 4.70701C-0.00626263 4.8307 -0.00832383 4.96004 0.019284 5.08467C0.0408602 5.18337 0.491392 7.16558 1.64777 8.74685C1.69983 8.81773 1.72789 8.90325 1.72789 8.99105C1.72789 9.07885 1.69983 9.16437 1.64777 9.23525C0.491392 10.816 0.0408602 12.7987 0.019284 12.8974C-0.00832383 13.0221 -0.00626263 13.1514 0.0253028 13.2751C0.0568683 13.3988 0.117063 13.5134 0.201075 13.6098C0.285088 13.7062 0.390589 13.7817 0.509147 13.8303C0.627705 13.8789 0.756032 13.8992 0.883873 13.8896C0.986616 13.8824 3.37695 13.685 5.41076 12.2081C5.57687 12.0867 5.73903 11.9636 5.89725 11.8388C5.9708 11.7805 6.06224 11.749 6.15629 11.7496C6.25035 11.7503 6.34133 11.783 6.41406 11.8424C7.60845 12.8238 9.24208 14.1069 11.1403 14.8086C11.1883 14.8268 11.2276 14.8623 11.2506 14.908C11.2737 14.9537 11.2786 15.0064 11.2646 15.0556L10.717 16.957C10.6789 17.0897 10.6751 17.2298 10.7061 17.3643C10.737 17.4989 10.8016 17.6234 10.8939 17.7264C10.9862 17.8294 11.1031 17.9075 11.2339 17.9534C11.3646 17.9993 11.5049 18.0116 11.6417 17.989C12.5232 17.8407 14.3068 17.3313 16.5759 15.5941C16.6407 15.5448 16.7186 15.5155 16.7999 15.5097C17.477 15.4655 18.1502 15.375 18.8147 15.2386C18.8461 15.2321 18.8755 15.2183 18.9005 15.1984C18.9256 15.1786 18.9457 15.1531 18.9591 15.1242C18.9725 15.0952 18.979 15.0635 18.9779 15.0316C18.9768 14.9997 18.9683 14.9685 18.9529 14.9405L18.7212 14.5165C17.7449 12.8404 17.2313 10.937 17.2325 8.99949Z" fill="black"/>
</svg>
