<svg width="31" height="31" viewBox="0 0 31 31" fill="none" xmlns="http://www.w3.org/2000/svg">
<path d="M15.5 15.4999C16.2104 15.4999 16.8188 15.2468 17.3251 14.7404C17.8306 14.2349 18.0833 13.627 18.0833 12.9166C18.0833 12.2062 17.8306 11.5978 17.3251 11.0915C16.8188 10.586 16.2104 10.3333 15.5 10.3333C14.7896 10.3333 14.1816 10.586 13.6762 11.0915C13.1698 11.5978 12.9167 12.2062 12.9167 12.9166C12.9167 13.627 13.1698 14.2349 13.6762 14.7404C14.1816 15.2468 14.7896 15.4999 15.5 15.4999ZM15.5 24.9937C18.1264 22.5826 20.0746 20.3919 21.3448 18.4217C22.6149 16.4523 23.25 14.7034 23.25 13.1749C23.25 10.8284 22.5017 8.90682 21.0051 7.41021C19.5093 5.91446 17.6743 5.16659 15.5 5.16659C13.3257 5.16659 11.4902 5.91446 9.99361 7.41021C8.49786 8.90682 7.74999 10.8284 7.74999 13.1749C7.74999 14.7034 8.38506 16.4523 9.6552 18.4217C10.9253 20.3919 12.8736 22.5826 15.5 24.9937ZM15.5 28.4166C12.034 25.4673 9.44552 22.7277 7.73449 20.1977C6.0226 17.6686 5.16666 15.3277 5.16666 13.1749C5.16666 9.94575 6.20559 7.37318 8.28345 5.45721C10.3604 3.54124 12.766 2.58325 15.5 2.58325C18.234 2.58325 20.6395 3.54124 22.7165 5.45721C24.7944 7.37318 25.8333 9.94575 25.8333 13.1749C25.8333 15.3277 24.9778 17.6686 23.2668 20.1977C21.5549 22.7277 18.966 25.4673 15.5 28.4166Z" fill="black"/>
</svg>
