<svg width="20" height="19" viewBox="0 0 20 19" fill="none" xmlns="http://www.w3.org/2000/svg">
<path d="M12.25 9.07499C10.675 10.6747 9.10001 14.6 9.10001 14.6C9.10001 14.6 6.85001 9.07499 4.60001 7.79999" stroke="black" stroke-width="1.5" stroke-linecap="round" stroke-linejoin="round"/>
<path d="M15.4135 5.87052L15.6808 8.48852C15.8536 10.1868 14.5054 11.699 12.7072 11.863C10.9432 12.0228 9.34481 10.8048 9.17471 9.13877C9.13424 8.7425 9.17681 8.34258 9.30001 7.96185C9.42321 7.58112 9.62462 7.22704 9.89273 6.91984C10.1608 6.61263 10.4904 6.35832 10.8626 6.17142C11.2348 5.98452 11.6423 5.8687 12.0619 5.83057L15.0175 5.56197C15.1133 5.55344 15.2088 5.58113 15.283 5.63897C15.3572 5.6968 15.4042 5.78007 15.4135 5.87052Z" stroke="black" stroke-width="1.5" stroke-linecap="round" stroke-linejoin="round"/>
<path d="M10 18C14.9707 18 19 14.1946 19 9.5C19 4.80545 14.9707 1 10 1C5.0293 1 1 4.80545 1 9.5C1 14.1946 5.0293 18 10 18Z" stroke="black" stroke-width="1.5" stroke-linecap="round" stroke-linejoin="round"/>
</svg>
