<svg width="35" height="33" viewBox="0 0 35 33" fill="none" xmlns="http://www.w3.org/2000/svg">
<path d="M17.0577 0C16.8526 2.90423e-05 16.6496 0.0449658 16.4604 0.132209C16.2711 0.219452 16.0994 0.347268 15.9552 0.50826L0.314986 15.5755C0.217306 15.6551 0.137915 15.7589 0.0832049 15.8785C0.0284951 15.9981 -4.66403e-06 16.1303 5.72505e-10 16.2643C5.72506e-10 16.4913 0.0816884 16.7091 0.227095 16.8696C0.372501 17.0301 0.569714 17.1203 0.77535 17.1203H4.6521V30.8166C4.6521 31.7616 5.34681 32.5286 6.2028 32.5286H12.4056C13.2616 32.5286 13.9563 31.7616 13.9563 30.8166V20.5444H20.1591V30.8166C20.1591 31.7616 20.8538 32.5286 21.7098 32.5286H27.9126C28.7686 32.5286 29.4633 31.7616 29.4633 30.8166V17.1203H33.34C33.5457 17.1203 33.7429 17.0301 33.8883 16.8696C34.0337 16.7091 34.1154 16.4913 34.1154 16.2643C34.1154 16.1303 34.0869 15.9981 34.0322 15.8785C33.9775 15.7589 33.8981 15.6551 33.8004 15.5755L18.1692 0.518291C18.1662 0.514934 18.1632 0.51159 18.1601 0.50826C18.016 0.347268 17.8443 0.219452 17.655 0.132209C17.4658 0.0449658 17.2628 2.90423e-05 17.0577 0Z" fill="black"/>
</svg>
