<svg width="27" height="33" viewBox="0 0 27 33" fill="none" xmlns="http://www.w3.org/2000/svg">
<path fill-rule="evenodd" clip-rule="evenodd" d="M13.6539 32.388C15.95 30.6239 26.2969 22.1497 26.2969 12.6931C26.2969 5.68291 20.436 0 13.2061 0C5.9763 0 0.115356 5.68291 0.115356 12.6931C0.115356 22.1497 10.4623 30.6239 12.7584 32.388C13.0282 32.5953 13.384 32.5953 13.6539 32.388ZM13.2061 18.1331C16.3046 18.1331 18.8165 15.6976 18.8165 12.6932C18.8165 9.68882 16.3046 7.25329 13.2061 7.25329C10.1076 7.25329 7.59579 9.68882 7.59579 12.6932C7.59579 15.6976 10.1076 18.1331 13.2061 18.1331Z" fill="black"/>
</svg>
