<svg width="35" height="35" viewBox="0 0 35 35" fill="none" xmlns="http://www.w3.org/2000/svg">
<path d="M17.3627 17.0577C15.0173 17.0577 13.0095 16.2226 11.3393 14.5523C9.66902 12.8821 8.8339 10.8743 8.8339 8.52885C8.8339 6.18341 9.66902 4.17558 11.3393 2.50535C13.0095 0.835117 15.0173 0 17.3627 0C19.7082 0 21.716 0.835117 23.3862 2.50535C25.0565 4.17558 25.8916 6.18341 25.8916 8.52885C25.8916 10.8743 25.0565 12.8821 23.3862 14.5523C21.716 16.2226 19.7082 17.0577 17.3627 17.0577ZM0.305054 34.1154V28.1452C0.305054 26.9369 0.616357 25.8261 1.23896 24.8125C1.86015 23.8005 2.68602 23.0279 3.71659 22.4948C5.91988 21.3932 8.1587 20.5666 10.4331 20.0151C12.7074 19.465 15.0173 19.1899 17.3627 19.1899C19.7082 19.1899 22.0181 19.465 24.2924 20.0151C26.5668 20.5666 28.8056 21.3932 31.0089 22.4948C32.0395 23.0279 32.8654 23.8005 33.4865 24.8125C34.1091 25.8261 34.4204 26.9369 34.4204 28.1452V34.1154H0.305054Z" fill="black"/>
</svg>
